# xmcd
#
# Track frame offsets: 
#        150
#        12777
#        25384
#        37982
#        49642
#        62852
#        74883
#        87996
#        98821
#        111049
#        122191
#        129223
#        139482
#        154658
#        168645
#        178114
#        191382
#        205450
#        218469
#        230941
#        243416
#        256329
#        270461
#        283466
#        296165
#
# Disc length: 4127 seconds
#
# Revision: 2
# Processed by: cddbd v1.5.2PL0 Copyright (c) Steve Scherf et al.
# Submitted via: ExactAudioCopy v1.0b1
#
DISCID=83101d19
DTITLE=Various Artist - Sonny Terry and Brownie McGhee - Country Blues Troubado
DTITLE=urs 1938-1948 - Disc C
DYEAR=2003
DGENRE=Blues
TTITLE0=Brownie McGhee - Unfair Blues
TTITLE1=Brownie McGhee - Barbecue Any Old Time
TTITLE2=Brownie McGhee - Workingman's Blues
TTITLE3=Brownie McGhee - Sinful Disposition Woman
TTITLE4=Brownie McGhee - Back Home Blues
TTITLE5=Brownie McGhee - Deep Sea Diver
TTITLE6=Brownie McGhee - It Must Be Love
TTITLE7=Brownie McGhee - Swing, Soldier, Swing (Take 1)
TTITLE8=Brownie McGhee - Swing, Soldier, Swing (Take 2)
TTITLE9=Sonny Terry - John Henry
TTITLE10=Sonny Terry - Fox Chase
TTITLE11=Sonny Terry - Fox Chase
TTITLE12=Sonny Terry - The Red Cross Store
TTITLE13=Sonny Terry - Sweet Woman
TTITLE14=Sonny Terry - Fox Chase
TTITLE15=Brownie McGhee and Sonny Terry - That's The Stuff (Watch Out)
TTITLE16=Brownie McGhee and Sonny Terry - Knockabout Blues (Carolina Blu
TTITLE16=es)
TTITLE17=Brownie McGhee and Sonny Terry - Easy Ridin' Buggy
TTITLE18=Brownie McGhee and Sonny Terry - Women Lover Blues
TTITLE19=Sonny Terry - Run Away Woman
TTITLE20=Sonny Terry - Shake Down
TTITLE21=Brownie and Sticks McGhee - Movin' To Kansas City
TTITLE22=Brownie and Sticks McGhee - Railroad Bill
TTITLE23=Brownie and Sticks McGhee - Rocks In My Bed
TTITLE24=Brownie and Sticks McGhee - Tennessee Shuffle
EXTD=
EXTT0=
EXTT1=
EXTT2=
EXTT3=
EXTT4=
EXTT5=
EXTT6=
EXTT7=
EXTT8=
EXTT9=
EXTT10=
EXTT11=
EXTT12=
EXTT13=
EXTT14=
EXTT15=
EXTT16=
EXTT17=
EXTT18=
EXTT19=
EXTT20=
EXTT21=
EXTT22=
EXTT23=
EXTT24=
PLAYORDER=
